# xmcd
#
# Track frame offsets: 
#        150
#        23250
#        62472
#        88884
#        132552
#        160847
#        175078
#        204633
#        226994
#        250775
#        279011
#
# Disc length: 4051 seconds
#
# Revision: 2
# Processed by: cddbd v1.5.2PL0 Copyright (c) Steve Scherf et al.
# Submitted via: ExactAudioCopy v1.0b1
#
DISCID=850fd10b
DTITLE=TW Henderson - The Wilderness Years
DYEAR=1998
DGENRE=Blues
TTITLE0=Song For My Father
TTITLE1=Black and White
TTITLE2=Shooter (Billy's Just A Kid)
TTITLE3=Don't Deny Me Baby
TTITLE4=In-City Blues
TTITLE5=Take A Turn For The Nurse
TTITLE6=Texas Special
TTITLE7=18th Birthday Blues
TTITLE8=There Must Be Something In The Water
TTITLE9=It Wasn't Me Who Brought The Tears
TTITLE10=Howl Into The Midnight
EXTD=
EXTT0=
EXTT1=
EXTT2=
EXTT3=
EXTT4=
EXTT5=
EXTT6=
EXTT7=
EXTT8=
EXTT9=
EXTT10=
PLAYORDER=
